<?xml version="1.0" encoding="utf-8"?>
<!-- Generator: Adobe Illustrator 19.1.0, SVG Export Plug-In . SVG Version: 6.00 Build 0)  -->
<svg version="1.1" id="Layer_1" xmlns="http://www.w3.org/2000/svg" xmlns:xlink="http://www.w3.org/1999/xlink" x="0px" y="0px"
	 viewBox="0 0 700 40.9" style="enable-background:new 0 0 700 40.9;" xml:space="preserve">
<style type="text/css">
	.st0{fill:#FFFFFF;}
</style>
<path class="st0" d="M37.9,40.4H33L6.4,9.7v30.7H1V0.5h4.6l27,30.9V0.5h5.4V40.4z"/>
<path class="st0" d="M97.1,5.7H80.2v12h16.3v5.1H80.2v12.4h17.4v5.1H74.5V0.5h22.6V5.7z"/>
<path class="st0" d="M161.3,5.7h-13.8v34.7h-5.7V5.7H128V0.5h33.3V5.7z"/>
<path class="st0" d="M209.4,24.1h-23.7v-5.2h23.7V24.1z"/>
<path class="st0" d="M272.9,40.4h-5.8l-5.3-11.7h-16.9l-5,11.7H234l17.1-40.1h4L272.9,40.4z M247,23.5h12.4L253,9.1L247,23.5z"/>
<path class="st0" d="M322.7,24.1H299v-5.2h23.7V24.1z"/>
<path class="st0" d="M369,0.5c8.7,0,12.7,5.1,12.7,11.5c0,6.3-4.2,11.2-13.4,11.2h-6v17.2h-5.7V0.5H369z M362.3,18h6.5
	c4.3,0,7-2.3,7-6.3c0-2.9-1.6-6.1-6.8-6.1h-6.7V18z"/>
<path class="st0" d="M430.6,0C443.7,0,452,9.4,452,20.5c0,10.8-8.1,20.5-21.6,20.5c-13,0-21.3-9.6-21.3-20.5
	C409.2,9.4,417.7,0,430.6,0z M430.6,35.7c8.9,0,15.6-6.5,15.6-15.2c0-8.8-6.6-15.2-15.6-15.2c-8.9,0-15.5,6.4-15.5,15.2
	C415.1,29.2,421.7,35.7,430.6,35.7z"/>
<path class="st0" d="M495.8,0.5c8.1,0,13.1,4.3,13.1,11.2c0,4.6-2.4,8.1-6.7,9.8c3.6,2.4,5.8,6.1,8.9,11.1c1.7,2.7,2.7,4.1,5.4,7.9
	h-6.8l-5.3-8.2c-5.3-8.2-7.7-9.1-10.6-9.1h-2.4v17.3h-5.7V0.5H495.8z M491.5,17.9h3.7c6.1,0,7.9-3.2,7.8-6.5c-0.1-3.7-2.3-6-7.8-6
	h-3.7V17.9z"/>
<path class="st0" d="M574.8,5.7H561v34.7h-5.7V5.7h-13.8V0.5h33.3V5.7z"/>
<path class="st0" d="M630.9,5.7h-16.9v12h16.3v5.1h-16.3v12.4h17.4v5.1h-23.1V0.5h22.6V5.7z"/>
<path class="st0" d="M679.3,0.5c8.1,0,13.1,4.3,13.1,11.2c0,4.6-2.4,8.1-6.7,9.8c3.6,2.4,5.8,6.1,8.9,11.1c1.7,2.7,2.7,4.1,5.4,7.9
	h-6.8l-5.3-8.2c-5.3-8.2-7.7-9.1-10.6-9.1h-2.4v17.3h-5.7V0.5H679.3z M674.9,17.9h3.7c6.1,0,7.9-3.2,7.8-6.5c-0.1-3.7-2.3-6-7.8-6
	h-3.7V17.9z"/>
</svg>
